<svg width="96" height="108" viewBox="0 0 96 108" fill="none" xmlns="http://www.w3.org/2000/svg">
<path d="M75.52 6.05335C73.6 2.74669 70.08 0.666687 66.24 0.666687H29.76C25.92 0.666687 22.4 2.74669 20.48 6.05335L2.18665 38.0534C0.319985 41.3067 0.319985 45.36 2.18665 48.6134L20.48 80.6134C20.6933 81.04 21.0133 81.36 21.3333 81.68V101.947C21.3333 103.813 22.2933 105.52 23.84 106.48C25.3867 107.44 27.36 107.547 29.0133 106.693L47.9467 97.2L66.88 106.693C67.6267 107.067 68.4267 107.28 69.28 107.28C70.24 107.28 71.2533 107.013 72.1067 106.48C73.6533 105.52 74.6133 103.813 74.6133 101.947V81.68C74.88 81.3067 75.2 80.9867 75.4667 80.6134L93.76 48.6134C95.6266 45.36 95.6266 41.3067 93.76 38.0534L75.4667 6.05335H75.52ZM66.24 75.3334H29.76L11.4667 43.3334L29.76 11.3334H66.24L84.5333 43.3334L66.24 75.3334Z" fill="white"/>
</svg>
