<svg width="26" height="26" viewBox="0 0 26 26" fill="none" xmlns="http://www.w3.org/2000/svg">
<path d="M23.8849 14.8964C22.9099 15.1839 21.9099 15.3339 20.9099 15.3339C15.2599 15.3339 10.6599 10.7339 10.6599 5.08391C10.6599 4.08391 10.8099 3.08391 11.0974 2.10891C11.2349 1.67141 11.1099 1.18391 10.7849 0.858908C10.4599 0.533908 9.98491 0.408908 9.53491 0.546408C4.13491 2.19641 0.497406 7.10891 0.497406 12.7589C0.497406 19.7839 6.20991 25.5089 13.2474 25.5089C18.9099 25.5089 23.8099 21.8714 25.4474 16.4589C25.5849 16.0214 25.4599 15.5339 25.1349 15.2089C24.8099 14.8839 24.3349 14.7589 23.8849 14.8964ZM13.2474 23.0089C7.59741 23.0089 2.99741 18.4089 2.99741 12.7589C2.99741 8.97141 5.03491 5.59641 8.22241 3.82141C8.18491 4.24641 8.15991 4.67141 8.15991 5.09641C8.15991 12.1214 13.8724 17.8464 20.9099 17.8464C21.3349 17.8464 21.7599 17.8214 22.1849 17.7839C20.4099 20.9839 17.0349 23.0089 13.2474 23.0089Z" fill="white"/>
</svg>
