<svg width="22" height="22" viewBox="0 0 22 22" fill="none" xmlns="http://www.w3.org/2000/svg">
<path d="M3.53868 11.5129L5.66453 13.4199L4.7996 16.4419L3.75752 20.0892C3.63247 20.5061 3.78878 20.9646 4.14309 21.2147C4.4974 21.4752 4.97676 21.4856 5.33107 21.2355L8.45732 19.1513L11.0104 17.4527L13.5635 19.1513L16.6898 21.2355C16.8657 21.3552 17.0743 21.4175 17.2871 21.4137C17.4998 21.41 17.7062 21.3405 17.8777 21.2147C18.2321 20.9541 18.3884 20.5061 18.2633 20.0892L17.2212 16.4419L16.3563 13.4199L18.4822 11.5129L21.0874 9.16818C21.4 8.88682 21.5146 8.44915 21.3791 8.06358C21.2437 7.66758 20.8894 7.39664 20.4725 7.35496L17.19 7.09444L14.5222 6.88602L11.9483 1.19625C11.866 1.0136 11.7328 0.858586 11.5646 0.749843C11.3964 0.6411 11.2003 0.583252 11 0.583252C10.7997 0.583252 10.6036 0.6411 10.4354 0.749843C10.2672 0.858586 10.1339 1.0136 10.0517 1.19625L7.47776 6.88602L4.81002 7.09444L1.52746 7.35496C1.11063 7.38622 0.756319 7.66758 0.620848 8.06358C0.485377 8.45957 0.600006 8.89724 0.912632 9.16818L3.51784 11.5129H3.53868ZM4.98718 9.16818L7.61323 8.95977L8.25932 8.90766L8.87415 8.85556L9.7495 6.91728L11 4.14534L12.2505 6.91728L13.1258 8.85556L13.7407 8.90766L14.3868 8.95977L17.0128 9.16818L17.8777 9.24113L17.0753 9.96017L14.4701 12.3049L13.9908 12.7425L14.1679 13.3678L15.4705 17.9321L11.5731 15.3373L11 14.9517L10.4269 15.3373L6.52946 17.9321L7.83207 13.3678L8.00922 12.7425L7.52986 12.3049L4.92465 9.96017L4.12225 9.24113L4.98718 9.16818Z" fill="white"/>
</svg>
